<mxfile host="app.diagrams.net" agent="Mozilla/5.0 (Windows NT 10.0; Win64; x64) AppleWebKit/537.36 (KHTML, like Gecko) Chrome/140.0.0.0 Safari/537.36" version="28.2.1">
  <diagram name="Page-1" id="g_3G0dRn0sJD76pxWEFS">
    <mxGraphModel dx="2066" dy="1103" grid="0" gridSize="10" guides="1" tooltips="1" connect="1" arrows="1" fold="1" page="1" pageScale="1" pageWidth="850" pageHeight="1100" math="0" shadow="0">
      <root>
        <mxCell id="0" />
        <mxCell id="1" parent="0" />
        <mxCell id="XL25QP1xroUpo6Hy0LYS-43" style="edgeStyle=orthogonalEdgeStyle;rounded=0;orthogonalLoop=1;jettySize=auto;html=1;entryX=0.5;entryY=0;entryDx=0;entryDy=0;" edge="1" parent="1" source="XL25QP1xroUpo6Hy0LYS-1" target="XL25QP1xroUpo6Hy0LYS-5">
          <mxGeometry relative="1" as="geometry" />
        </mxCell>
        <mxCell id="XL25QP1xroUpo6Hy0LYS-1" value="Literature Review" style="shape=note;whiteSpace=wrap;html=1;backgroundOutline=1;darkOpacity=0.05;" vertex="1" parent="1">
          <mxGeometry x="203" y="126" width="80" height="100" as="geometry" />
        </mxCell>
        <mxCell id="XL25QP1xroUpo6Hy0LYS-9" value="" style="group" vertex="1" connectable="0" parent="1">
          <mxGeometry x="113" y="281" width="260" height="160" as="geometry" />
        </mxCell>
        <mxCell id="XL25QP1xroUpo6Hy0LYS-5" value="" style="rounded=1;whiteSpace=wrap;html=1;" vertex="1" parent="XL25QP1xroUpo6Hy0LYS-9">
          <mxGeometry width="260" height="160" as="geometry" />
        </mxCell>
        <mxCell id="XL25QP1xroUpo6Hy0LYS-6" value="Delphi Study" style="text;html=1;align=center;verticalAlign=middle;whiteSpace=wrap;rounded=0;" vertex="1" parent="XL25QP1xroUpo6Hy0LYS-9">
          <mxGeometry x="85" y="10" width="100" height="30" as="geometry" />
        </mxCell>
        <mxCell id="XL25QP1xroUpo6Hy0LYS-7" value="&lt;br&gt;Round 1 -&lt;div&gt;Survey &amp;amp; Results&lt;/div&gt;" style="shape=note;whiteSpace=wrap;html=1;backgroundOutline=1;darkOpacity=0.05;" vertex="1" parent="XL25QP1xroUpo6Hy0LYS-9">
          <mxGeometry x="30" y="40" width="80" height="100" as="geometry" />
        </mxCell>
        <mxCell id="XL25QP1xroUpo6Hy0LYS-8" value="&lt;br&gt;Round 2 -&lt;div&gt;Survey &amp;amp; Results&lt;/div&gt;" style="shape=note;whiteSpace=wrap;html=1;backgroundOutline=1;darkOpacity=0.05;" vertex="1" parent="XL25QP1xroUpo6Hy0LYS-9">
          <mxGeometry x="150" y="40" width="80" height="100" as="geometry" />
        </mxCell>
        <mxCell id="XL25QP1xroUpo6Hy0LYS-41" style="edgeStyle=orthogonalEdgeStyle;rounded=0;orthogonalLoop=1;jettySize=auto;html=1;" edge="1" parent="1" source="XL25QP1xroUpo6Hy0LYS-12" target="XL25QP1xroUpo6Hy0LYS-40">
          <mxGeometry relative="1" as="geometry" />
        </mxCell>
        <mxCell id="XL25QP1xroUpo6Hy0LYS-12" value="Req.&amp;nbsp;&lt;div&gt;Document&lt;/div&gt;" style="shape=note;whiteSpace=wrap;html=1;backgroundOutline=1;darkOpacity=0.05;" vertex="1" parent="1">
          <mxGeometry x="133" y="511" width="80" height="100" as="geometry" />
        </mxCell>
        <mxCell id="XL25QP1xroUpo6Hy0LYS-42" style="edgeStyle=orthogonalEdgeStyle;rounded=0;orthogonalLoop=1;jettySize=auto;html=1;entryX=0.5;entryY=0;entryDx=0;entryDy=0;" edge="1" parent="1" source="XL25QP1xroUpo6Hy0LYS-13" target="XL25QP1xroUpo6Hy0LYS-40">
          <mxGeometry relative="1" as="geometry" />
        </mxCell>
        <mxCell id="XL25QP1xroUpo6Hy0LYS-13" value="System Test Cases" style="shape=note;whiteSpace=wrap;html=1;backgroundOutline=1;darkOpacity=0.05;" vertex="1" parent="1">
          <mxGeometry x="263" y="511" width="80" height="100" as="geometry" />
        </mxCell>
        <mxCell id="XL25QP1xroUpo6Hy0LYS-14" style="edgeStyle=orthogonalEdgeStyle;rounded=0;orthogonalLoop=1;jettySize=auto;html=1;entryX=0.5;entryY=0;entryDx=0;entryDy=0;entryPerimeter=0;" edge="1" parent="1" source="XL25QP1xroUpo6Hy0LYS-5" target="XL25QP1xroUpo6Hy0LYS-12">
          <mxGeometry relative="1" as="geometry" />
        </mxCell>
        <mxCell id="XL25QP1xroUpo6Hy0LYS-15" style="edgeStyle=orthogonalEdgeStyle;rounded=0;orthogonalLoop=1;jettySize=auto;html=1;entryX=0;entryY=0;entryDx=50;entryDy=0;entryPerimeter=0;" edge="1" parent="1" source="XL25QP1xroUpo6Hy0LYS-5" target="XL25QP1xroUpo6Hy0LYS-13">
          <mxGeometry relative="1" as="geometry" />
        </mxCell>
        <mxCell id="XL25QP1xroUpo6Hy0LYS-17" value="" style="childLayout=tableLayout;recursiveResize=0;shadow=0;fillColor=none;fontStyle=1" vertex="1" parent="1">
          <mxGeometry x="143" y="694" width="180" height="137" as="geometry" />
        </mxCell>
        <mxCell id="XL25QP1xroUpo6Hy0LYS-18" value="" style="shape=tableRow;horizontal=0;startSize=0;swimlaneHead=0;swimlaneBody=0;top=0;left=0;bottom=0;right=0;dropTarget=0;collapsible=0;recursiveResize=0;expand=0;fontStyle=0;fillColor=none;strokeColor=inherit;" vertex="1" parent="XL25QP1xroUpo6Hy0LYS-17">
          <mxGeometry width="180" height="47" as="geometry" />
        </mxCell>
        <mxCell id="XL25QP1xroUpo6Hy0LYS-19" value="&lt;b&gt;REQ #1&lt;/b&gt;" style="connectable=0;recursiveResize=0;strokeColor=inherit;fillColor=none;align=center;whiteSpace=wrap;html=1;" vertex="1" parent="XL25QP1xroUpo6Hy0LYS-18">
          <mxGeometry width="60" height="47" as="geometry">
            <mxRectangle width="60" height="47" as="alternateBounds" />
          </mxGeometry>
        </mxCell>
        <mxCell id="XL25QP1xroUpo6Hy0LYS-20" value="&lt;b&gt;TC #1&lt;/b&gt;" style="connectable=0;recursiveResize=0;strokeColor=inherit;fillColor=none;align=center;whiteSpace=wrap;html=1;" vertex="1" parent="XL25QP1xroUpo6Hy0LYS-18">
          <mxGeometry x="60" width="60" height="47" as="geometry">
            <mxRectangle width="60" height="47" as="alternateBounds" />
          </mxGeometry>
        </mxCell>
        <mxCell id="XL25QP1xroUpo6Hy0LYS-21" value="&lt;b&gt;TC #2&lt;/b&gt;" style="connectable=0;recursiveResize=0;strokeColor=inherit;fillColor=none;align=center;whiteSpace=wrap;html=1;" vertex="1" parent="XL25QP1xroUpo6Hy0LYS-18">
          <mxGeometry x="120" width="60" height="47" as="geometry">
            <mxRectangle width="60" height="47" as="alternateBounds" />
          </mxGeometry>
        </mxCell>
        <mxCell id="XL25QP1xroUpo6Hy0LYS-22" style="shape=tableRow;horizontal=0;startSize=0;swimlaneHead=0;swimlaneBody=0;top=0;left=0;bottom=0;right=0;dropTarget=0;collapsible=0;recursiveResize=0;expand=0;fontStyle=0;fillColor=none;strokeColor=inherit;" vertex="1" parent="XL25QP1xroUpo6Hy0LYS-17">
          <mxGeometry y="47" width="180" height="43" as="geometry" />
        </mxCell>
        <mxCell id="XL25QP1xroUpo6Hy0LYS-23" value="&lt;b&gt;REQ #2&lt;/b&gt;" style="connectable=0;recursiveResize=0;strokeColor=inherit;fillColor=none;align=center;whiteSpace=wrap;html=1;" vertex="1" parent="XL25QP1xroUpo6Hy0LYS-22">
          <mxGeometry width="60" height="43" as="geometry">
            <mxRectangle width="60" height="43" as="alternateBounds" />
          </mxGeometry>
        </mxCell>
        <mxCell id="XL25QP1xroUpo6Hy0LYS-24" value="&lt;b&gt;...&lt;/b&gt;" style="connectable=0;recursiveResize=0;strokeColor=inherit;fillColor=none;align=center;whiteSpace=wrap;html=1;" vertex="1" parent="XL25QP1xroUpo6Hy0LYS-22">
          <mxGeometry x="60" width="60" height="43" as="geometry">
            <mxRectangle width="60" height="43" as="alternateBounds" />
          </mxGeometry>
        </mxCell>
        <mxCell id="XL25QP1xroUpo6Hy0LYS-25" value="&lt;b&gt;...&lt;/b&gt;" style="connectable=0;recursiveResize=0;strokeColor=inherit;fillColor=none;align=center;whiteSpace=wrap;html=1;" vertex="1" parent="XL25QP1xroUpo6Hy0LYS-22">
          <mxGeometry x="120" width="60" height="43" as="geometry">
            <mxRectangle width="60" height="43" as="alternateBounds" />
          </mxGeometry>
        </mxCell>
        <mxCell id="XL25QP1xroUpo6Hy0LYS-26" style="shape=tableRow;horizontal=0;startSize=0;swimlaneHead=0;swimlaneBody=0;top=0;left=0;bottom=0;right=0;dropTarget=0;collapsible=0;recursiveResize=0;expand=0;fontStyle=0;fillColor=none;strokeColor=inherit;" vertex="1" parent="XL25QP1xroUpo6Hy0LYS-17">
          <mxGeometry y="90" width="180" height="47" as="geometry" />
        </mxCell>
        <mxCell id="XL25QP1xroUpo6Hy0LYS-27" value="&lt;b&gt;REQ #N&lt;/b&gt;" style="connectable=0;recursiveResize=0;strokeColor=inherit;fillColor=none;align=center;whiteSpace=wrap;html=1;" vertex="1" parent="XL25QP1xroUpo6Hy0LYS-26">
          <mxGeometry width="60" height="47" as="geometry">
            <mxRectangle width="60" height="47" as="alternateBounds" />
          </mxGeometry>
        </mxCell>
        <mxCell id="XL25QP1xroUpo6Hy0LYS-28" value="&lt;b&gt;...&lt;/b&gt;" style="connectable=0;recursiveResize=0;strokeColor=inherit;fillColor=none;align=center;whiteSpace=wrap;html=1;" vertex="1" parent="XL25QP1xroUpo6Hy0LYS-26">
          <mxGeometry x="60" width="60" height="47" as="geometry">
            <mxRectangle width="60" height="47" as="alternateBounds" />
          </mxGeometry>
        </mxCell>
        <mxCell id="XL25QP1xroUpo6Hy0LYS-29" value="&lt;b&gt;...&lt;/b&gt;" style="connectable=0;recursiveResize=0;strokeColor=inherit;fillColor=none;align=center;whiteSpace=wrap;html=1;" vertex="1" parent="XL25QP1xroUpo6Hy0LYS-26">
          <mxGeometry x="120" width="60" height="47" as="geometry">
            <mxRectangle width="60" height="47" as="alternateBounds" />
          </mxGeometry>
        </mxCell>
        <mxCell id="XL25QP1xroUpo6Hy0LYS-40" value="Traceability Matrix" style="text;html=1;align=center;verticalAlign=middle;whiteSpace=wrap;rounded=0;" vertex="1" parent="1">
          <mxGeometry x="108" y="664" width="250" height="30" as="geometry" />
        </mxCell>
        <mxCell id="XL25QP1xroUpo6Hy0LYS-52" value="" style="group" vertex="1" connectable="0" parent="1">
          <mxGeometry x="498" y="241" width="220" height="240" as="geometry" />
        </mxCell>
        <mxCell id="XL25QP1xroUpo6Hy0LYS-50" value="" style="rounded=1;whiteSpace=wrap;html=1;" vertex="1" parent="XL25QP1xroUpo6Hy0LYS-52">
          <mxGeometry width="220" height="240" as="geometry" />
        </mxCell>
        <mxCell id="XL25QP1xroUpo6Hy0LYS-51" value="Architecture Plans" style="text;html=1;align=center;verticalAlign=middle;whiteSpace=wrap;rounded=0;" vertex="1" parent="XL25QP1xroUpo6Hy0LYS-52">
          <mxGeometry x="44.81481481481481" y="16" width="130.37037037037035" height="48" as="geometry" />
        </mxCell>
        <mxCell id="XL25QP1xroUpo6Hy0LYS-46" value="System Architecture&lt;div&gt;Plan&lt;/div&gt;" style="shape=note;whiteSpace=wrap;html=1;backgroundOutline=1;darkOpacity=0.05;" vertex="1" parent="XL25QP1xroUpo6Hy0LYS-52">
          <mxGeometry x="20" y="70" width="80" height="100" as="geometry" />
        </mxCell>
        <mxCell id="XL25QP1xroUpo6Hy0LYS-53" value="" style="group" vertex="1" connectable="0" parent="XL25QP1xroUpo6Hy0LYS-52">
          <mxGeometry x="120" y="70" width="80" height="155" as="geometry" />
        </mxCell>
        <mxCell id="XL25QP1xroUpo6Hy0LYS-47" value="Data&lt;div&gt;Architecture&lt;div&gt;Plan&lt;/div&gt;&lt;/div&gt;" style="shape=note;whiteSpace=wrap;html=1;backgroundOutline=1;darkOpacity=0.05;" vertex="1" parent="XL25QP1xroUpo6Hy0LYS-53">
          <mxGeometry width="80" height="100" as="geometry" />
        </mxCell>
        <mxCell id="XL25QP1xroUpo6Hy0LYS-48" value="Schemas" style="shape=cylinder3;whiteSpace=wrap;html=1;boundedLbl=1;backgroundOutline=1;size=15;" vertex="1" parent="XL25QP1xroUpo6Hy0LYS-53">
          <mxGeometry x="10" y="75" width="60" height="80" as="geometry" />
        </mxCell>
        <mxCell id="XL25QP1xroUpo6Hy0LYS-54" style="edgeStyle=orthogonalEdgeStyle;rounded=0;orthogonalLoop=1;jettySize=auto;html=1;entryX=0;entryY=0.5;entryDx=0;entryDy=0;" edge="1" parent="1" source="XL25QP1xroUpo6Hy0LYS-5" target="XL25QP1xroUpo6Hy0LYS-50">
          <mxGeometry relative="1" as="geometry" />
        </mxCell>
        <mxCell id="XL25QP1xroUpo6Hy0LYS-58" value="" style="group" vertex="1" connectable="0" parent="1">
          <mxGeometry x="453" y="574" width="310" height="120" as="geometry" />
        </mxCell>
        <mxCell id="XL25QP1xroUpo6Hy0LYS-45" value="" style="rounded=1;whiteSpace=wrap;html=1;" vertex="1" parent="XL25QP1xroUpo6Hy0LYS-58">
          <mxGeometry width="310" height="120" as="geometry" />
        </mxCell>
        <mxCell id="XL25QP1xroUpo6Hy0LYS-56" value="System Deliverables" style="text;html=1;align=center;verticalAlign=middle;whiteSpace=wrap;rounded=0;" vertex="1" parent="XL25QP1xroUpo6Hy0LYS-58">
          <mxGeometry x="89.125" y="4.444444444444457" width="131.75" height="13.333333333333332" as="geometry" />
        </mxCell>
        <mxCell id="XL25QP1xroUpo6Hy0LYS-55" value="Prototype&lt;div&gt;System&lt;/div&gt;" style="ellipse;shape=cloud;whiteSpace=wrap;html=1;" vertex="1" parent="XL25QP1xroUpo6Hy0LYS-58">
          <mxGeometry x="20" y="20" width="120" height="80" as="geometry" />
        </mxCell>
        <mxCell id="XL25QP1xroUpo6Hy0LYS-44" value="Evaluation Results" style="shape=cylinder3;whiteSpace=wrap;html=1;boundedLbl=1;backgroundOutline=1;size=15;" vertex="1" parent="XL25QP1xroUpo6Hy0LYS-58">
          <mxGeometry x="200" y="20" width="90" height="80" as="geometry" />
        </mxCell>
        <mxCell id="XL25QP1xroUpo6Hy0LYS-59" style="edgeStyle=orthogonalEdgeStyle;rounded=0;orthogonalLoop=1;jettySize=auto;html=1;entryX=0.477;entryY=0.975;entryDx=0;entryDy=0;entryPerimeter=0;" edge="1" parent="1" source="XL25QP1xroUpo6Hy0LYS-22" target="XL25QP1xroUpo6Hy0LYS-45">
          <mxGeometry relative="1" as="geometry" />
        </mxCell>
        <mxCell id="XL25QP1xroUpo6Hy0LYS-60" style="edgeStyle=orthogonalEdgeStyle;rounded=0;orthogonalLoop=1;jettySize=auto;html=1;exitX=0.5;exitY=1;exitDx=0;exitDy=0;entryX=0.5;entryY=0;entryDx=0;entryDy=0;" edge="1" parent="1" source="XL25QP1xroUpo6Hy0LYS-50" target="XL25QP1xroUpo6Hy0LYS-45">
          <mxGeometry relative="1" as="geometry" />
        </mxCell>
      </root>
    </mxGraphModel>
  </diagram>
</mxfile>
